<?xml version="1.0" encoding="UTF-8" standalone="no"?>
<!-- Created with Inkscape (http://www.inkscape.org/) -->

<svg
   xmlns:dc="http://purl.org/dc/elements/1.1/"
   xmlns:cc="http://creativecommons.org/ns#"
   xmlns:rdf="http://www.w3.org/1999/02/22-rdf-syntax-ns#"
   xmlns:svg="http://www.w3.org/2000/svg"
   xmlns="http://www.w3.org/2000/svg"
   xmlns:sodipodi="http://sodipodi.sourceforge.net/DTD/sodipodi-0.dtd"
   xmlns:inkscape="http://www.inkscape.org/namespaces/inkscape"
   width="384"
   height="89"
   viewBox="0 0 101.6 23.547917"
   version="1.1"
   id="svg8"
   inkscape:version="0.92.4 (5da689c313, 2019-01-14)"
   sodipodi:docname="logo.svg">
  <defs
     id="defs2" />
  <sodipodi:namedview
     id="base"
     pagecolor="#ffffff"
     bordercolor="#666666"
     borderopacity="1.0"
     inkscape:pageopacity="0.0"
     inkscape:pageshadow="2"
     inkscape:zoom="2.2640625"
     inkscape:cx="230.68658"
     inkscape:cy="28.617381"
     inkscape:document-units="mm"
     inkscape:current-layer="layer1"
     showgrid="false"
     units="px"
     inkscape:snap-text-baseline="true"
     inkscape:window-width="1920"
     inkscape:window-height="1001"
     inkscape:window-x="1591"
     inkscape:window-y="-9"
     inkscape:window-maximized="1">
    <inkscape:grid
       type="xygrid"
       id="grid3721" />
  </sodipodi:namedview>
  <metadata
     id="metadata5">
    <rdf:RDF>
      <cc:Work
         rdf:about="">
        <dc:format>image/svg+xml</dc:format>
        <dc:type
           rdf:resource="http://purl.org/dc/dcmitype/StillImage" />
        <dc:title></dc:title>
      </cc:Work>
    </rdf:RDF>
  </metadata>
  <g
     inkscape:label="Layer 1"
     inkscape:groupmode="layer"
     id="layer1"
     transform="translate(0,-273.45206)"
     style="display:inline">
    <text
       xml:space="preserve"
       style="font-style:normal;font-variant:normal;font-weight:normal;font-stretch:normal;font-size:28.78031921px;line-height:1.25;font-family:'DDD Round Square';-inkscape-font-specification:'DDD Round Square, Normal';font-variant-ligatures:normal;font-variant-caps:normal;font-variant-numeric:normal;font-feature-settings:normal;text-align:start;letter-spacing:0px;word-spacing:0px;writing-mode:lr-tb;text-anchor:start;fill:#000000;fill-opacity:1;stroke:none;stroke-width:2.74663281"
       x="4.1806846"
       y="295.4426"
       id="text3725"><tspan
         sodipodi:role="line"
         id="tspan3723"
         x="4.1806846"
         y="295.4426"
         style="font-style:normal;font-variant:normal;font-weight:normal;font-stretch:normal;font-size:28.78031921px;font-family:'3D LET BRK';-inkscape-font-specification:'3D LET BRK, Normal';font-variant-ligatures:normal;font-variant-caps:normal;font-variant-numeric:normal;font-feature-settings:normal;text-align:start;writing-mode:lr-tb;text-anchor:start;stroke-width:2.74663281">078</tspan></text>
    <text
       xml:space="preserve"
       style="font-style:normal;font-variant:normal;font-weight:normal;font-stretch:normal;font-size:8.35937786px;line-height:1.25;font-family:'DDD Round Square';-inkscape-font-specification:'DDD Round Square, Normal';font-variant-ligatures:normal;font-variant-caps:normal;font-variant-numeric:normal;font-feature-settings:normal;text-align:start;letter-spacing:0px;word-spacing:0px;writing-mode:lr-tb;text-anchor:start;fill:#2b4a9a;fill-opacity:1;stroke:none;stroke-width:0.79777235"
       x="63.569965"
       y="293.04227"
       id="text3729"><tspan
         sodipodi:role="line"
         x="63.569965"
         y="293.04227"
         style="font-style:normal;font-variant:normal;font-weight:normal;font-stretch:normal;font-size:8.35931683px;font-family:'DDD Round Square';-inkscape-font-specification:'DDD Round Square, Normal';font-variant-ligatures:normal;font-variant-caps:normal;font-variant-numeric:normal;font-feature-settings:normal;text-align:start;writing-mode:lr-tb;text-anchor:start;fill:#2b4a9a;fill-opacity:1;stroke-width:0.79777235"
         id="tspan3731">.news</tspan></text>
    <path
       style="opacity:0.8;fill:#2b4a9a;fill-opacity:1;fill-rule:nonzero;stroke:#ebb10f;stroke-width:0.22084196;stroke-miterlimit:4;stroke-dasharray:none;stroke-opacity:1"
       d="m 32.392846,74.43323 -9.461498,-4.822477 -2.410351,-3.544269 -2.410351,-3.544268 0.0568,-14.531298 0.0568,-14.531299 2.027827,-1.064065 2.027827,-1.064066 9.686085,4.844021 9.686084,4.844021 2.367616,3.500736 2.367613,3.500736 -0.0028,14.628563 -0.0028,14.628564 -1.983165,0.996004 c -1.090741,0.547803 -2.109375,0.99276 -2.263631,0.988791 -0.154255,-0.004 -4.538138,-2.177331 -9.741962,-4.829694 z M 37.715699,57.90368 37.658347,47.358476 32.799824,44.882595 C 30.127636,43.52086 27.668009,42.402848 27.333985,42.398123 l -0.607315,-0.0086 v 10.436984 10.436985 l 5.134575,2.580145 c 2.824017,1.419082 5.309453,2.585792 5.523191,2.592691 0.366449,0.01184 0.385344,-0.588939 0.331263,-10.532657 z"
       id="path3780"
       inkscape:connector-curvature="0"
       transform="matrix(0.26458333,0,0,0.26458333,0,273.45206)" />
    <path
       style="opacity:0.8;fill:#2b4a9a;fill-opacity:1;fill-rule:nonzero;stroke:#ebb10f;stroke-width:0.22084196;stroke-miterlimit:4;stroke-dasharray:none;stroke-opacity:1"
       d="m 105.6577,74.482818 -4.21598,-2.10757 4.71601,-11.845861 c 3.14723,-7.905352 4.69659,-12.064709 4.65766,-12.503759 -0.0562,-0.633294 -0.42385,-0.843805 -9.83061,-5.628383 l -9.772258,-4.970483 v -4.033453 c 0,-2.218399 0.04948,-4.033453 0.109962,-4.033453 0.06048,0 6.420728,3.154915 14.133886,7.010922 l 14.02392,7.010922 v 4.745439 4.745438 l -4.69289,11.868169 c -2.58109,6.52749 -4.74258,11.863999 -4.80331,11.858906 -0.0607,-0.0051 -2.00761,-0.957668 -4.32639,-2.116834 z"
       id="path3848"
       inkscape:connector-curvature="0"
       transform="matrix(0.26458333,0,0,0.26458333,0,273.45206)" />
    <path
       style="opacity:0.8;fill:#2b4a9a;fill-opacity:1;fill-rule:nonzero;stroke:#ebb10f;stroke-width:0.22084196;stroke-miterlimit:4;stroke-dasharray:none;stroke-opacity:1"
       d="m 178.5609,74.429997 -9.49082,-4.831576 -2.37336,-3.500926 -2.37336,-3.500924 0.0491,-4.623569 0.0491,-4.623572 2.3698,-1.228741 c 1.94997,-1.011059 2.37055,-1.317626 2.37405,-1.730465 0.002,-0.276308 -1.08717,-2.134518 -2.42501,-4.135958 l -2.42926,-3.634234 v -4.59267 -4.592669 l 2.11268,-1.04947 2.11268,-1.049471 9.68074,4.884191 9.68075,4.88419 2.34046,3.51251 2.34046,3.512509 v 4.630781 4.630779 l -2.25057,1.167457 c -1.23782,0.6421 -2.34844,1.330458 -2.46805,1.529682 -0.17071,0.284336 0.31322,1.173501 2.25058,4.135135 l 2.46804,3.772915 v 4.641113 4.641115 l -1.98316,0.996004 c -1.09074,0.547803 -2.10938,0.994078 -2.26363,0.991722 -0.15426,-0.0024 -4.55134,-2.178493 -9.77129,-4.835858 z m 5.40525,-9.027478 v -3.046365 l -5.04658,-2.585105 c -2.77562,-1.421807 -5.26009,-2.585106 -5.52105,-2.585106 -0.46251,0 -0.47447,0.07692 -0.47447,3.051943 v 3.051944 l 5.02415,2.557226 c 2.76329,1.406474 5.24776,2.567261 5.52105,2.579527 0.49236,0.0221 0.4969,-0.0055 0.4969,-3.024064 z m -0.049,-14.978397 -0.0615,-3.007508 -4.85852,-2.509874 c -2.6892,-1.389221 -5.12969,-2.51151 -5.46584,-2.51354 l -0.60731,-0.0037 v 3.038877 3.038877 l 4.91373,2.469614 c 2.70255,1.358288 5.18983,2.475265 5.52728,2.482173 l 0.61355,0.01256 z"
       id="path3850"
       inkscape:connector-curvature="0"
       transform="matrix(0.26458333,0,0,0.26458333,0,273.45206)" />
  </g>
</svg>
