<?xml version="1.0" encoding="UTF-8" standalone="no"?>
<!-- Created with Inkscape (http://www.inkscape.org/) -->

<svg
   xmlns:dc="http://purl.org/dc/elements/1.1/"
   xmlns:cc="http://creativecommons.org/ns#"
   xmlns:rdf="http://www.w3.org/1999/02/22-rdf-syntax-ns#"
   xmlns:svg="http://www.w3.org/2000/svg"
   xmlns="http://www.w3.org/2000/svg"
   xmlns:sodipodi="http://sodipodi.sourceforge.net/DTD/sodipodi-0.dtd"
   xmlns:inkscape="http://www.inkscape.org/namespaces/inkscape"
   width="384"
   height="89"
   viewBox="0 0 101.6 23.547917"
   version="1.1"
   id="svg8"
   sodipodi:docname="logo.svg"
   inkscape:version="0.92.4 (5da689c313, 2019-01-14)">
  <defs
     id="defs2" />
  <sodipodi:namedview
     id="base"
     pagecolor="#ffffff"
     bordercolor="#666666"
     borderopacity="1.0"
     inkscape:pageopacity="0.0"
     inkscape:pageshadow="2"
     inkscape:zoom="2.2640625"
     inkscape:cx="230.68658"
     inkscape:cy="28.617381"
     inkscape:document-units="mm"
     inkscape:current-layer="layer1"
     showgrid="false"
     units="px"
     inkscape:snap-text-baseline="true"
     inkscape:window-width="1920"
     inkscape:window-height="1001"
     inkscape:window-x="1591"
     inkscape:window-y="-9"
     inkscape:window-maximized="1">
    <inkscape:grid
       type="xygrid"
       id="grid3721" />
  </sodipodi:namedview>
  <metadata
     id="metadata5">
    <rdf:RDF>
      <cc:Work
         rdf:about="">
        <dc:format>image/svg+xml</dc:format>
        <dc:type
           rdf:resource="http://purl.org/dc/dcmitype/StillImage" />
        <dc:title></dc:title>
      </cc:Work>
    </rdf:RDF>
  </metadata>
  <g
     inkscape:label="Layer 1"
     inkscape:groupmode="layer"
     id="layer1"
     transform="translate(0,-273.45206)"
     style="display:inline">
    <g
       aria-label="078"
       style="font-style:normal;font-variant:normal;font-weight:normal;font-stretch:normal;font-size:28.78031921px;line-height:1.25;font-family:'DDD Round Square';-inkscape-font-specification:'DDD Round Square, Normal';font-variant-ligatures:normal;font-variant-caps:normal;font-variant-numeric:normal;font-feature-settings:normal;text-align:start;letter-spacing:0px;word-spacing:0px;writing-mode:lr-tb;text-anchor:start;fill:#000000;fill-opacity:1;stroke:none;stroke-width:2.74663281"
       id="text3725">
      <path
         d="m 5.8211628,292.16164 5.3531392,2.67657 2.64779,-1.26633 2.619009,1.26633 5.381919,-2.67657 1.323895,-1.98584 v -9.41117 l -1.323895,-1.98584 -5.238018,-2.61901 h -0.287803 l -2.475107,1.20878 -2.503888,-1.20878 h -0.259023 l -5.2380182,2.61901 -1.352675,2.01462 v 9.35361 z m 0.2302425,-0.25902 -1.266334,-1.87072 v -7.74191 l 1.1224324,-0.57561 5.1516773,2.59023 1.237554,1.84194 v 7.77069 l -1.122433,0.57561 z m 9.2672627,2.01462 v -7.74191 l 1.266334,-1.8995 5.122897,-2.56145 1.122432,0.57561 v 7.74191 l -1.237553,1.87072 -5.151677,2.59023 z m -2.647789,-7.68435 0.94975,-0.48926 v 7.51166 l -0.94975,0.46049 z m 1.323894,7.0224 v -7.51166 l 0.949751,0.48926 v 7.48289 z m -6.9072762,-3.07949 2.70535,1.35267 h 0.057561 q 0.02878,0 0.086341,0 0.057561,0 0.057561,-0.0576 v -5.43948 l -2.6765696,-1.35267 h -0.086341 q -0.02878,0 -0.086341,0 -0.057561,0 -0.057561,0.0576 z m 10.5335972,-4.14437 v 5.43948 q 0,0.0576 0.05756,0.0576 0.05756,0 0.08634,0 h 0.05756 l 2.70535,-1.35267 v -5.43948 q 0,-0.0576 -0.05756,-0.0576 -0.05756,0 -0.08634,0 h -0.08634 z m -9.9292105,4.05803 v -0.0576 l 1.985842,-0.97853 v 2.0434 z m 10.2457935,-1.03609 2.014622,0.97853 v 0.0576 l -2.014622,1.00731 z m -10.5335967,-3.94291 2.2736452,1.12243 v 2.41755 l -2.2736452,1.12243 z m 10.5335967,3.53998 v -2.41755 l 2.273645,-1.12243 v 4.66241 z m -5.38192,-2.76291 -1.122432,-1.66926 2.187304,-1.09365 v 2.24486 z m 1.439016,-0.51805 v -2.24486 l 2.158524,1.06487 v 0.0288 0.0288 q 0,0.0576 -0.05756,0.11512 -0.08634,0.14391 -0.259023,0.40293 -0.143902,0.23024 -0.316584,0.46048 -0.143901,0.23025 -0.259023,0.40293 -0.115121,0.1439 -0.115121,0.1439 l -0.08634,0.11512 z m -7.6843448,-3.85656 2.2448649,-1.12243 4.8638739,2.44633 -2.244865,1.12243 z m 7.8858078,1.3239 4.863874,-2.44633 2.244864,1.12243 -4.863873,2.44633 z m -1.554138,-0.77707 v -1.26634 q 0,-0.0576 -0.08634,-0.0576 -0.05756,0 -0.05756,0 h -0.08634 l -1.237554,0.57561 -2.2448648,-1.09365 4.6911918,-2.35999 v 4.69119 z m 1.352675,-4.20193 4.691192,2.35999 -2.244864,1.09365 -1.237554,-0.57561 h -0.05756 q -0.02878,0 -0.115121,0 -0.05756,0 -0.05756,0.0576 v 1.26634 l -0.978531,0.48926 z m -9.2097017,3.28096 0.7482883,0.37414 -0.7482883,0.37415 z m 6.7921557,0.37414 0.719508,-0.37414 v 0.74829 z m 3.741441,-0.37414 0.719508,0.37414 -0.719508,0.37415 z m 6.792155,0.37414 0.719508,-0.37414 v 0.74829 z M 4.9001925,280.79341 q 0,-0.0288 0,-0.0576 0.02878,-0.0288 0.02878,-0.0576 0.057561,-0.0863 0.1726819,-0.2878 0.1439016,-0.20146 0.2878032,-0.40292 0.1726819,-0.23025 0.2878032,-0.43171 0.1439016,-0.20146 0.2014622,-0.2878 0.02878,-0.0288 0.057561,-0.0576 0.02878,-0.0576 0.057561,-0.0576 h 0.02878 0.02878 l 2.1009633,1.06487 -2.2448649,1.09365 -0.9785308,-0.48927 z m 14.5628415,-0.5756 2.187304,-1.09365 1.093652,1.61169 v 0.0288 0.0288 q -0.02878,0 -0.05756,0.0288 0,0 0,0 l -0.978531,0.48927 z m -13.1526058,-1.3239 4.8638738,-2.44632 2.244865,1.12243 -4.8638739,2.44633 z m 7.8858078,-1.32389 2.244865,-1.12243 4.863873,2.44632 -2.244864,1.12244 z"
         style="font-style:normal;font-variant:normal;font-weight:normal;font-stretch:normal;font-size:28.78031921px;font-family:'3D LET BRK';-inkscape-font-specification:'3D LET BRK, Normal';font-variant-ligatures:normal;font-variant-caps:normal;font-variant-numeric:normal;font-feature-settings:normal;text-align:start;writing-mode:lr-tb;text-anchor:start;stroke-width:2.74663281"
         id="path23" />
      <path
         d="m 26.424274,292.70847 q 0,0.0863 0.05756,0.11512 l 2.70535,1.35267 2.734131,-1.35267 q 0.05756,-0.0288 0.08634,-0.1439 0.05756,-0.11513 0.05756,-0.11513 l 1.928281,-4.80631 0.345364,1.09365 0.83463,0.46049 q 0,0 0.02878,0.0288 0.02878,0 0.02878,0.0288 v 0.0288 0.0288 l -0.89219,3.19462 v 0.0863 q 0,0.0863 0.05756,0.11512 l 2.70535,1.35267 2.70535,-1.35267 q 0.05756,0 0.05756,-0.0576 0.02878,-0.0576 0.05756,-0.0863 l 2.561449,-9.0658 v -4.17315 l -8.029709,-4.00047 -1.295115,0.60439 -1.323894,-0.60439 -8.02971,4.00047 v 4.14436 q 0,0 0,0.0288 0.02878,0 0.05756,0 0.05756,0.0576 0.287803,0.17268 0.230243,0.11512 0.287804,0.1439 l 0.115121,0.23024 1.84194,4.57607 q 0,0.11512 0.08634,0.1439 l 1.122433,0.57561 q 0,0.0288 0,0.0576 0.02878,0 0.02878,0 0.02878,0 0.02878,0.0288 0,0 0,0 0,0 0,0.0288 0,0 -0.02878,0 l -1.208773,3.05072 z m 0.374144,-0.0863 2.532668,-6.36046 v -0.11512 q 0,-0.11512 -0.05756,-0.1439 l -5.151677,-2.61901 v -2.24486 l 7.511663,3.77022 v 2.56145 l -2.503887,6.30289 z m 7.885807,0 1.698039,-5.95753 3.079494,-1.52536 -2.446327,8.54776 q 0,0 -0.02878,0.0288 0,0 -0.02878,0 0,0.0288 -0.02878,0.0288 0,0 0,0 0,0 -0.02878,0 0,0 0,-0.0288 z m 5.180458,-7.77069 q 0,-0.17268 -0.143902,-0.17268 h -0.08634 l -4.978995,2.4751 V 284.909 l 7.511663,-3.77022 v 2.38876 l -2.561448,9.03702 -2.216085,1.12244 2.475108,-8.74922 z m -10.274574,8.66288 2.331206,-5.78485 q 0.05756,-0.17268 0.143901,-0.20146 l 1.093652,-0.54683 0.661948,0.34537 -2.100964,5.23801 -2.129743,1.06488 z m -2.878032,-4.89266 -1.698039,-4.20193 q 0,-0.0288 -0.02878,-0.0863 -0.02878,-0.0576 -0.02878,-0.0863 v -0.0288 -0.0288 l 2.129744,1.09365 1.151213,2.82048 q 0,0 -0.02878,0.0576 -0.02878,0.0576 -0.02878,0.0863 -0.05756,0.11512 -0.172682,0.4317 -0.115121,0.2878 -0.143901,0.37415 -0.02878,0.0288 -0.05756,0.0576 0,0.0288 0,0.0288 l -0.02878,0.0288 -0.02878,-0.0288 z m 7.598004,-1.03609 h 0.230243 l 1.381455,-0.66195 v 0.11512 l -0.546826,1.84194 -0.05756,0.11512 q -0.05756,-0.0576 -0.316583,-0.1439 -0.230243,-0.11512 -0.287804,-0.17268 -0.02878,-0.0288 -0.08634,-0.0576 -0.02878,-0.0288 -0.02878,-0.0576 z m -6.705814,-2.0434 v -0.0288 l 1.352675,0.69072 v 0.0288 0.0288 q -0.02878,0.11513 -0.115122,0.34537 -0.08634,0.23024 -0.172682,0.46048 -0.08634,0.20147 -0.172681,0.37415 -0.05756,0.1439 -0.08634,0.1439 h -0.02878 q -0.05756,-0.11512 -0.172682,-0.37414 -0.08634,-0.25903 -0.201462,-0.54683 -0.115121,-0.31658 -0.230242,-0.57561 -0.115122,-0.25902 -0.143902,-0.34536 0,-0.0288 -0.02878,-0.0863 0,-0.0576 0,-0.0863 z m 4.403388,-0.63317 0.949751,-0.46049 v 2.21609 l -0.949751,0.48926 z m 1.323895,1.7556 v -2.21609 l 0.949751,0.46049 v 2.24486 z m -8.950679,-5.78485 v -0.0576 l 0.834629,-0.40292 h 2.70535 l 5.036556,2.53267 v 1.09365 l -1.122432,0.57561 z m 8.950679,3.16584 v -1.09365 l 5.065336,-2.53267 h 2.67657 l 0.834629,0.40292 v 0.0576 l -7.454102,3.74145 z m -0.94975,-3.25218 0.92097,-0.48926 v -2.44633 l 4.719972,2.35999 -2.244865,1.09365 -1.237553,-0.57561 h -0.08634 q -0.115122,0 -0.115122,0.11512 0,0.25903 0.08634,0.51805 0.115122,0.23024 0.115122,0.48927 v 0.0863 l -1.381456,0.69072 h -0.02878 q -0.02878,-0.0288 -0.115121,-0.0576 -0.08634,-0.0288 -0.115122,-0.0576 l -0.02878,-0.0576 z m -1.467797,0.71951 1.151213,-0.5756 0.374144,1.35267 z m 3.827783,-0.2878 v -0.0288 l 0.633167,0.31658 q -0.05756,0.0288 -0.201462,0.11512 -0.143902,0.0863 -0.201463,0.11512 h -0.02878 -0.02878 q 0,-0.0288 -0.02878,-0.0576 -0.02878,-0.0288 -0.02878,-0.0576 -0.02878,-0.0576 -0.05756,-0.17268 -0.02878,-0.1439 -0.05756,-0.20146 z m -6.475572,-1.00731 4.691192,-2.35999 v 2.24487 l -2.446327,1.20877 z m -4.144366,-0.37415 0.748288,0.37415 -0.748288,0.34536 z m 17.325752,0.37415 0.719508,-0.37415 v 0.71951 z m -17.066729,-0.63317 v -0.0576 l 7.454103,-3.74144 1.122432,0.5756 v 1.09366 l -5.151677,2.59023 h -2.475108 z m 8.950679,-2.12974 v -1.09366 l 1.122433,-0.5756 7.454102,3.74144 v 0.0576 l -0.94975,0.46049 h -2.475108 z"
         style="font-style:normal;font-variant:normal;font-weight:normal;font-stretch:normal;font-size:28.78031921px;font-family:'3D LET BRK';-inkscape-font-specification:'3D LET BRK, Normal';font-variant-ligatures:normal;font-variant-caps:normal;font-variant-numeric:normal;font-feature-settings:normal;text-align:start;writing-mode:lr-tb;text-anchor:start;stroke-width:2.74663281"
         id="path25" />
      <path
         d="m 44.494716,292.16164 5.35314,2.67657 2.647789,-1.26633 2.619009,1.26633 5.38192,-2.67657 1.323894,-1.98584 v -4.11559 q 0,-0.0576 -0.05756,-0.11512 -0.02878,-0.0576 -0.115122,-0.20146 -0.08634,-0.17268 -0.143901,-0.23024 v -0.0863 q 0.05756,-0.0576 0.143901,-0.20147 0.08634,-0.17268 0.115122,-0.23024 0.02878,-0.0288 0.02878,-0.0576 0.02878,-0.0576 0.02878,-0.0576 v -4.11559 l -1.323894,-1.98584 -5.238018,-2.61901 h -0.287804 l -2.475107,1.20878 -2.503888,-1.20878 h -0.259023 l -5.238018,2.61901 -1.352675,2.01462 v 4.08681 l 0.374144,0.57561 -0.374144,0.60438 v 4.08681 z m 0.230243,-0.25902 -1.266334,-1.87072 v -2.47511 l 1.266334,-0.66195 v -0.23024 l -1.266334,-1.8995 v -2.47511 l 1.122432,-0.57561 5.151677,2.59023 1.237554,1.84194 v 2.50389 l -1.151213,0.60439 q -0.115121,0.0863 -0.115121,0.1439 0,0.0576 0.05756,0.17268 l 1.208773,1.84194 v 2.50389 l -1.122432,0.57561 z m 9.267263,2.01462 v -2.47511 l 1.266334,-1.92828 v -0.0576 q 0,-0.11512 -0.115122,-0.20146 l -1.151212,-0.60439 v -2.47511 l 1.266334,-1.8995 5.122896,-2.56145 1.122433,0.57561 v 2.50389 l -1.208774,1.84194 q -0.05756,0.0576 -0.05756,0.1439 0,0.0863 0.115121,0.17268 l 1.151213,0.60439 v 2.47511 l -1.237554,1.87072 -5.151677,2.59023 z m -2.64779,-2.41755 0.949751,-0.48926 v 2.24486 l -0.949751,0.46049 z m 1.323895,1.7556 v -2.24486 l 0.94975,0.48926 v 2.21609 z m -6.907277,-3.07949 2.70535,1.35267 h 0.05756 q 0.02878,0 0.08634,0 0.05756,0 0.05756,-0.0576 v -1.49657 l -2.67657,-1.35268 h -0.08634 q -0.02878,0 -0.08634,0 -0.05756,0 -0.05756,0.0576 z m 10.533597,-0.20146 v 1.49657 q 0,0.0576 0.05756,0.0576 0.05756,0 0.08634,0 h 0.05756 l 2.70535,-1.35267 v -1.49658 q 0,-0.0576 -0.05756,-0.0576 -0.05756,0 -0.08634,0 h -0.08634 z m -5.065336,1.17999 -1.122433,-1.66926 2.187305,-1.09365 v 2.24486 z m 1.439016,-0.51805 v -2.24486 l 2.158524,1.06487 v 0.0288 0.0288 q 0,0.0576 -0.05756,0.11512 -0.08634,0.1439 -0.259023,0.40293 -0.143901,0.23024 -0.316583,0.46048 -0.143902,0.23024 -0.259023,0.40293 -0.115121,0.1439 -0.115121,0.1439 l -0.08634,0.11512 z m -6.30289,-0.54682 v -0.0576 l 0.86341,-0.43171 1.122432,0.57561 v 0.92097 z m 10.245794,0.0863 1.122432,-0.57561 0.89219,0.43171 v 0.0576 l -2.014622,1.00731 z m -10.533597,-1.12243 0.748288,0.37414 -0.748288,0.34536 z m 12.058954,0.37414 0.748288,-0.37414 v 0.7195 z m -6.792156,-3.19462 0.949751,-0.48926 v 2.24486 l -0.949751,0.48927 z m 1.323895,1.7556 v -2.24486 l 0.94975,0.48926 v 2.24487 z m -6.907277,-1.7556 2.70535,1.35268 h 0.05756 q 0.02878,0 0.08634,0 0.05756,0 0.05756,-0.0576 v -1.49658 l -2.67657,-1.35267 h -0.08634 q -0.02878,0 -0.08634,0 -0.05756,0 -0.05756,0.0576 z m 10.533597,-0.20146 v 1.49658 q 0,0.0576 0.05756,0.0576 0.05756,0 0.08634,0 h 0.05756 l 2.70535,-1.35268 v -1.49657 q 0,-0.0576 -0.05756,-0.0576 -0.05756,0 -0.08634,0 h -0.08634 z m -12.836022,0.37415 0.748288,0.37414 -0.748288,0.37414 z m 2.906812,-0.25903 v -0.0576 l 0.86341,-0.4317 1.122432,0.5756 v 0.92097 z m 10.245794,0.0863 1.122432,-0.5756 0.89219,0.4317 v 0.0576 l -2.014622,1.00731 z m 4.173146,0.54683 0.719508,-0.37414 v 0.74828 z m -17.210631,-0.71951 q 0,-0.0288 0,-0.0576 0.02878,-0.0288 0.02878,-0.0576 0.02878,-0.0288 0.05756,-0.0863 0.05756,-0.0576 0.05756,-0.0863 l 0.316583,0.48926 v 0.0576 q -0.05756,-0.0288 -0.230242,-0.0863 -0.143902,-0.0863 -0.201463,-0.1439 z m 17.699896,-0.23024 h 0.02878 q 0,0.0288 0.02878,0.0863 0.05756,0.0576 0.08634,0.0863 v 0.0288 0.0288 q -0.02878,0 -0.05756,0.0288 0,0 0,0 -0.05756,0.0576 -0.230242,0.1439 -0.143902,0.0576 -0.201463,0.0863 0.05756,-0.11513 0.115122,-0.28781 0.08634,-0.20146 0.230242,-0.20146 z m -10.044331,0.0576 -1.122433,-1.66926 2.187305,-1.09365 v 2.24486 z m 1.439016,-0.51805 v -2.24486 l 2.158524,1.06487 v 0.0288 0.0288 q 0,0.0576 -0.05756,0.11512 -0.08634,0.14391 -0.259023,0.40293 -0.143901,0.23024 -0.316583,0.46048 -0.143902,0.23025 -0.259023,0.40293 -0.115121,0.1439 -0.115121,0.1439 l -0.08634,0.11512 z m -6.590693,-0.25902 0.748288,0.34537 -0.748288,0.37414 z m 12.058954,0.34537 0.748288,-0.34537 v 0.71951 z m -13.152606,-3.94291 2.244865,-1.12243 4.863874,2.44633 -2.244865,1.12243 z m 7.885807,1.3239 4.863874,-2.44633 2.244865,1.12243 -4.863874,2.44633 z m -1.554137,-0.77707 v -1.26634 q 0,-0.0576 -0.08634,-0.0576 -0.05756,0 -0.05756,0 h -0.08634 l -1.237553,0.57561 -2.244865,-1.09365 4.691192,-2.35999 v 4.69119 z m 1.352675,-4.20193 4.691192,2.35999 -2.244865,1.09365 -1.237554,-0.57561 h -0.05756 q -0.02878,0 -0.115122,0 -0.05756,0 -0.05756,0.0576 v 1.26634 l -0.978531,0.48926 z m -9.209702,3.28096 0.748288,0.37414 -0.748288,0.37415 z m 6.792155,0.37414 0.719508,-0.37414 v 0.74829 z m 3.741442,-0.37414 0.719508,0.37414 -0.719508,0.37415 z m 6.792155,0.37414 0.719508,-0.37414 v 0.74829 z m -17.210631,-0.71951 q 0,-0.0288 0,-0.0576 0.02878,-0.0288 0.02878,-0.0576 0.05756,-0.0863 0.172682,-0.2878 0.143902,-0.20146 0.287803,-0.40292 0.172682,-0.23025 0.287804,-0.43171 0.143901,-0.20146 0.201462,-0.2878 0.02878,-0.0288 0.05756,-0.0576 0.02878,-0.0576 0.05756,-0.0576 h 0.02878 0.02878 l 2.100963,1.06487 -2.244865,1.09365 -0.978531,-0.48927 z m 14.562842,-0.5756 2.187304,-1.09365 1.093652,1.61169 v 0.0288 0.0288 q -0.02878,0 -0.05756,0.0288 0,0 0,0 l -0.978531,0.48927 z m -13.152606,-1.3239 4.863874,-2.44632 2.244865,1.12243 -4.863874,2.44633 z m 7.885807,-1.32389 2.244865,-1.12243 4.863874,2.44632 -2.244865,1.12244 z"
         style="font-style:normal;font-variant:normal;font-weight:normal;font-stretch:normal;font-size:28.78031921px;font-family:'3D LET BRK';-inkscape-font-specification:'3D LET BRK, Normal';font-variant-ligatures:normal;font-variant-caps:normal;font-variant-numeric:normal;font-feature-settings:normal;text-align:start;writing-mode:lr-tb;text-anchor:start;stroke-width:2.74663281"
         id="path27" />
    </g>
    <g
       aria-label=".news"
       style="font-style:normal;font-variant:normal;font-weight:normal;font-stretch:normal;font-size:8.35937786px;line-height:1.25;font-family:'DDD Round Square';-inkscape-font-specification:'DDD Round Square, Normal';font-variant-ligatures:normal;font-variant-caps:normal;font-variant-numeric:normal;font-feature-settings:normal;text-align:start;letter-spacing:0px;word-spacing:0px;writing-mode:lr-tb;text-anchor:start;fill:#2b4a9a;fill-opacity:1;stroke:none;stroke-width:0.79777235"
       id="text3729">
      <path
         d="m 67.243493,293.01778 q -0.195921,0 -0.342862,-0.13062 -0.146941,-0.13061 -0.146941,-0.35919 0,-0.19592 0.138777,-0.34286 0.146941,-0.14694 0.351026,-0.14694 0.195922,0 0.342863,0.14694 0.146941,0.14694 0.146941,0.34286 0,0.22858 -0.146941,0.35919 -0.146941,0.13062 -0.342863,0.13062 z m -3.346992,1.16736 v -6.36745 q 0,-0.65307 0.653072,-0.65307 h 5.387841 q 0.653071,0 0.653071,0.81634 v 6.04091 q 0,0.81634 -0.653071,0.81634 h -5.387841 q -0.620418,0 -0.653072,-0.65307 z m 0.653072,-0.32653 q 0.03265,0.35919 0.326536,0.32653 h 4.734769 q 0.359189,0 0.326536,-0.32653 v -5.71438 q 0,-0.32654 -0.326536,-0.32654 h -4.734769 q -0.326536,0 -0.326536,0.32654 z"
         style="font-style:normal;font-variant:normal;font-weight:normal;font-stretch:normal;font-size:8.35931683px;font-family:'DDD Round Square';-inkscape-font-specification:'DDD Round Square, Normal';font-variant-ligatures:normal;font-variant-caps:normal;font-variant-numeric:normal;font-feature-settings:normal;text-align:start;writing-mode:lr-tb;text-anchor:start;fill:#2b4a9a;fill-opacity:1;stroke-width:0.79777235"
         id="path30" />
      <path
         d="m 73.839517,289.92385 v 0.10612 q 0.236738,-0.31021 0.514294,-0.44898 0.277555,-0.14694 0.636745,-0.14694 0.351026,0 0.628581,0.1551 0.277555,0.14694 0.416333,0.43266 0.0898,0.16327 0.114288,0.35103 0.03265,0.18775 0.03265,0.48164 v 1.65717 q 0,0.26122 -0.130614,0.4 -0.122451,0.13062 -0.318372,0.13062 -0.195922,0 -0.318373,-0.13062 -0.122451,-0.13878 -0.122451,-0.4 v -1.48574 q 0,-0.44083 -0.122451,-0.6694 -0.122451,-0.23674 -0.489803,-0.23674 -0.228576,0 -0.424497,0.14694 -0.195922,0.13878 -0.285719,0.38368 -0.06531,0.19592 -0.06531,0.74287 v 1.11839 q 0,0.26122 -0.130614,0.4 -0.130615,0.13062 -0.326536,0.13062 -0.195922,0 -0.318373,-0.13062 -0.122451,-0.13878 -0.122451,-0.4 v -2.57964 q 0,-0.25306 0.106125,-0.37551 0.114287,-0.12245 0.310209,-0.12245 0.122451,0 0.212248,0.0571 0.09796,0.049 0.146941,0.16327 0.05714,0.11429 0.05714,0.26939 z m -2.59596,4.26129 v -6.36745 q 0,-0.65307 0.653072,-0.65307 h 5.387841 q 0.653071,0 0.653071,0.81634 v 6.04091 q 0,0.81634 -0.653071,0.81634 h -5.387841 q -0.620418,0 -0.653072,-0.65307 z m 0.653072,-0.32653 q 0.03265,0.35919 0.326536,0.32653 h 4.734769 q 0.359189,0 0.326536,-0.32653 v -5.71438 q 0,-0.32654 -0.326536,-0.32654 h -4.734769 q -0.326536,0 -0.326536,0.32654 z"
         style="font-style:normal;font-variant:normal;font-weight:normal;font-stretch:normal;font-size:8.35931683px;font-family:'DDD Round Square';-inkscape-font-specification:'DDD Round Square, Normal';font-variant-ligatures:normal;font-variant-caps:normal;font-variant-numeric:normal;font-feature-settings:normal;text-align:start;writing-mode:lr-tb;text-anchor:start;fill:#2b4a9a;fill-opacity:1;stroke-width:0.79777235"
         id="path32" />
      <path
         d="m 82.892722,291.45857 h -1.738803 q 0.0082,0.30204 0.122451,0.53062 0.122451,0.22857 0.318372,0.35102 0.204085,0.11429 0.43266,0.11429 0.163268,0 0.293883,-0.0326 0.130614,-0.0408 0.253065,-0.12245 0.122451,-0.0816 0.228575,-0.17143 0.106124,-0.0898 0.277555,-0.24491 0.06531,-0.0571 0.195922,-0.0571 0.130614,0 0.212248,0.0735 0.0898,0.0735 0.0898,0.21225 0,0.12245 -0.09796,0.28572 -0.0898,0.1551 -0.285719,0.31021 -0.187758,0.14694 -0.48164,0.2449 -0.285719,0.0898 -0.661235,0.0898 -0.848993,0 -1.330634,-0.48164 -0.473477,-0.48981 -0.473477,-1.32247 0,-0.39185 0.114288,-0.73471 0.122451,-0.34286 0.342862,-0.5796 0.228575,-0.2449 0.555111,-0.36735 0.334699,-0.13062 0.726542,-0.13062 0.522458,0 0.897974,0.22041 0.375516,0.22042 0.563274,0.57144 0.187758,0.34286 0.187758,0.71022 0,0.32653 -0.195921,0.43266 -0.195922,0.098 -0.546948,0.098 z m -1.738803,-0.50613 h 1.616352 q -0.03265,-0.45715 -0.253065,-0.67756 -0.212248,-0.22858 -0.555111,-0.22858 -0.326536,0 -0.546947,0.22858 -0.212248,0.22857 -0.261229,0.67756 z m -2.563306,3.2327 v -6.36745 q 0,-0.65307 0.653072,-0.65307 h 5.387841 q 0.653071,0 0.653071,0.81634 v 6.04091 q 0,0.81634 -0.653071,0.81634 h -5.387841 q -0.620418,0 -0.653072,-0.65307 z m 0.653072,-0.32653 q 0.03265,0.35919 0.326535,0.32653 h 4.73477 q 0.359189,0 0.326536,-0.32653 v -5.71438 q 0,-0.32654 -0.326536,-0.32654 h -4.73477 q -0.326535,0 -0.326535,0.32654 z"
         style="font-style:normal;font-variant:normal;font-weight:normal;font-stretch:normal;font-size:8.35931683px;font-family:'DDD Round Square';-inkscape-font-specification:'DDD Round Square, Normal';font-variant-ligatures:normal;font-variant-caps:normal;font-variant-numeric:normal;font-feature-settings:normal;text-align:start;writing-mode:lr-tb;text-anchor:start;fill:#2b4a9a;fill-opacity:1;stroke-width:0.79777235"
         id="path34" />
      <path
         d="m 87.603002,289.98916 0.579601,1.9837 0.530621,-1.84493 q 0.08163,-0.29388 0.122451,-0.4 0.04082,-0.10613 0.155104,-0.19592 0.114288,-0.098 0.310209,-0.098 0.195922,0 0.302046,0.098 0.114287,0.0898 0.155104,0.20408 0.04898,0.11429 0.130615,0.39184 l 0.53062,1.84493 0.587765,-1.9837 q 0.05714,-0.22041 0.0898,-0.31838 0.04082,-0.098 0.122451,-0.16326 0.0898,-0.0735 0.244902,-0.0735 0.163268,0 0.277555,0.11428 0.122451,0.10613 0.122451,0.25307 0,0.13878 -0.106124,0.41633 l -0.726542,2.13065 q -0.09796,0.26939 -0.146941,0.39184 -0.04898,0.12245 -0.163268,0.21225 -0.114287,0.0898 -0.310209,0.0898 -0.195921,0 -0.318372,-0.098 -0.114288,-0.098 -0.171432,-0.24491 -0.05714,-0.14694 -0.122451,-0.38368 l -0.497967,-1.73064 -0.489803,1.73064 q -0.09796,0.35919 -0.212249,0.54695 -0.114287,0.1796 -0.408169,0.1796 -0.146942,0 -0.253066,-0.049 -0.09796,-0.0571 -0.171431,-0.16327 -0.06531,-0.10613 -0.114288,-0.25307 -0.04898,-0.14694 -0.08163,-0.22857 l -0.718378,-2.13065 q -0.114288,-0.30204 -0.114288,-0.41633 0,-0.13878 0.114288,-0.25307 0.114287,-0.11428 0.285719,-0.11428 0.220411,0 0.293882,0.12245 0.08163,0.12245 0.171431,0.43266 z m -1.665333,4.19598 v -6.36745 q 0,-0.65307 0.653072,-0.65307 h 5.387841 q 0.653072,0 0.653072,0.81634 v 6.04091 q 0,0.81634 -0.653072,0.81634 h -5.387841 q -0.620418,0 -0.653072,-0.65307 z m 0.653072,-0.32653 q 0.03265,0.35919 0.326536,0.32653 h 4.734769 q 0.35919,0 0.326536,-0.32653 v -5.71438 q 0,-0.32654 -0.326536,-0.32654 h -4.734769 q -0.326536,0 -0.326536,0.32654 z"
         style="font-style:normal;font-variant:normal;font-weight:normal;font-stretch:normal;font-size:8.35931683px;font-family:'DDD Round Square';-inkscape-font-specification:'DDD Round Square, Normal';font-variant-ligatures:normal;font-variant-caps:normal;font-variant-numeric:normal;font-feature-settings:normal;text-align:start;writing-mode:lr-tb;text-anchor:start;fill:#2b4a9a;fill-opacity:1;stroke-width:0.79777235"
         id="path36" />
      <path
         d="m 98.158272,291.88306 q 0,0.36736 -0.179595,0.62859 -0.179595,0.26122 -0.538784,0.4 -0.351026,0.13062 -0.84083,0.13062 -0.48164,0 -0.824503,-0.13878 -0.342862,-0.14694 -0.50613,-0.36735 -0.163268,-0.22042 -0.163268,-0.44899 0,-0.13878 0.106124,-0.2449 0.106124,-0.10613 0.261229,-0.10613 0.146941,0 0.220411,0.0735 0.07347,0.0653 0.138778,0.18776 0.138778,0.23674 0.326536,0.35919 0.195921,0.11429 0.514294,0.11429 0.269392,0 0.440823,-0.11429 0.171432,-0.12245 0.171432,-0.27755 0,-0.23674 -0.179595,-0.34287 -0.179595,-0.10612 -0.571438,-0.20408 -0.465313,-0.11429 -0.759196,-0.23674 -0.285718,-0.12245 -0.45715,-0.32654 -0.171431,-0.21224 -0.171431,-0.51429 0,-0.26123 0.155104,-0.49797 0.163268,-0.2449 0.473477,-0.38368 0.310209,-0.13877 0.759196,-0.13877 0.334699,0 0.604091,0.0735 0.277556,0.0653 0.465314,0.18775 0.187758,0.12246 0.277555,0.2694 0.09796,0.14694 0.09796,0.28572 0,0.1551 -0.106124,0.25306 -0.09796,0.098 -0.285719,0.098 -0.138778,0 -0.236738,-0.0735 -0.09796,-0.0816 -0.220412,-0.23674 -0.09796,-0.13061 -0.236738,-0.21225 -0.130615,-0.0816 -0.35919,-0.0816 -0.244902,0 -0.40817,0.10612 -0.155104,0.098 -0.155104,0.25307 0,0.13878 0.114287,0.23674 0.122451,0.0898 0.318373,0.14694 0.195921,0.0571 0.538784,0.13878 0.416333,0.098 0.677562,0.23674 0.261228,0.13877 0.400006,0.33469 0.138778,0.18776 0.138778,0.43266 z m -4.873547,2.30208 v -6.36745 q 0,-0.65307 0.653071,-0.65307 h 5.387841 q 0.653072,0 0.653072,0.81634 v 6.04091 q 0,0.81634 -0.653072,0.81634 h -5.387841 q -0.620418,0 -0.653071,-0.65307 z m 0.653071,-0.32653 q 0.03265,0.35919 0.326536,0.32653 h 4.73477 q 0.359189,0 0.326535,-0.32653 v -5.71438 q 0,-0.32654 -0.326535,-0.32654 h -4.73477 q -0.326536,0 -0.326536,0.32654 z"
         style="font-style:normal;font-variant:normal;font-weight:normal;font-stretch:normal;font-size:8.35931683px;font-family:'DDD Round Square';-inkscape-font-specification:'DDD Round Square, Normal';font-variant-ligatures:normal;font-variant-caps:normal;font-variant-numeric:normal;font-feature-settings:normal;text-align:start;writing-mode:lr-tb;text-anchor:start;fill:#2b4a9a;fill-opacity:1;stroke-width:0.79777235"
         id="path38" />
    </g>
    <path
       style="opacity:0.8;fill:#2b4a9a;fill-opacity:1;fill-rule:nonzero;stroke:#ebb10f;stroke-width:0.22084196;stroke-miterlimit:4;stroke-dasharray:none;stroke-opacity:1"
       d="m 32.392846,74.43323 -9.461498,-4.822477 -2.410351,-3.544269 -2.410351,-3.544268 0.0568,-14.531298 0.0568,-14.531299 2.027827,-1.064065 2.027827,-1.064066 9.686085,4.844021 9.686084,4.844021 2.367616,3.500736 2.367613,3.500736 -0.0028,14.628563 -0.0028,14.628564 -1.983165,0.996004 c -1.090741,0.547803 -2.109375,0.99276 -2.263631,0.988791 -0.154255,-0.004 -4.538138,-2.177331 -9.741962,-4.829694 z M 37.715699,57.90368 37.658347,47.358476 32.799824,44.882595 C 30.127636,43.52086 27.668009,42.402848 27.333985,42.398123 l -0.607315,-0.0086 v 10.436984 10.436985 l 5.134575,2.580145 c 2.824017,1.419082 5.309453,2.585792 5.523191,2.592691 0.366449,0.01184 0.385344,-0.588939 0.331263,-10.532657 z"
       id="path3780"
       inkscape:connector-curvature="0"
       transform="matrix(0.26458333,0,0,0.26458333,0,273.45206)" />
    <path
       style="opacity:0.8;fill:#2b4a9a;fill-opacity:1;fill-rule:nonzero;stroke:#ebb10f;stroke-width:0.22084196;stroke-miterlimit:4;stroke-dasharray:none;stroke-opacity:1"
       d="m 105.6577,74.482818 -4.21598,-2.10757 4.71601,-11.845861 c 3.14723,-7.905352 4.69659,-12.064709 4.65766,-12.503759 -0.0562,-0.633294 -0.42385,-0.843805 -9.83061,-5.628383 l -9.772258,-4.970483 v -4.033453 c 0,-2.218399 0.04948,-4.033453 0.109962,-4.033453 0.06048,0 6.420728,3.154915 14.133886,7.010922 l 14.02392,7.010922 v 4.745439 4.745438 l -4.69289,11.868169 c -2.58109,6.52749 -4.74258,11.863999 -4.80331,11.858906 -0.0607,-0.0051 -2.00761,-0.957668 -4.32639,-2.116834 z"
       id="path3848"
       inkscape:connector-curvature="0"
       transform="matrix(0.26458333,0,0,0.26458333,0,273.45206)" />
    <path
       style="opacity:0.8;fill:#2b4a9a;fill-opacity:1;fill-rule:nonzero;stroke:#ebb10f;stroke-width:0.22084196;stroke-miterlimit:4;stroke-dasharray:none;stroke-opacity:1"
       d="m 178.5609,74.429997 -9.49082,-4.831576 -2.37336,-3.500926 -2.37336,-3.500924 0.0491,-4.623569 0.0491,-4.623572 2.3698,-1.228741 c 1.94997,-1.011059 2.37055,-1.317626 2.37405,-1.730465 0.002,-0.276308 -1.08717,-2.134518 -2.42501,-4.135958 l -2.42926,-3.634234 v -4.59267 -4.592669 l 2.11268,-1.04947 2.11268,-1.049471 9.68074,4.884191 9.68075,4.88419 2.34046,3.51251 2.34046,3.512509 v 4.630781 4.630779 l -2.25057,1.167457 c -1.23782,0.6421 -2.34844,1.330458 -2.46805,1.529682 -0.17071,0.284336 0.31322,1.173501 2.25058,4.135135 l 2.46804,3.772915 v 4.641113 4.641115 l -1.98316,0.996004 c -1.09074,0.547803 -2.10938,0.994078 -2.26363,0.991722 -0.15426,-0.0024 -4.55134,-2.178493 -9.77129,-4.835858 z m 5.40525,-9.027478 v -3.046365 l -5.04658,-2.585105 c -2.77562,-1.421807 -5.26009,-2.585106 -5.52105,-2.585106 -0.46251,0 -0.47447,0.07692 -0.47447,3.051943 v 3.051944 l 5.02415,2.557226 c 2.76329,1.406474 5.24776,2.567261 5.52105,2.579527 0.49236,0.0221 0.4969,-0.0055 0.4969,-3.024064 z m -0.049,-14.978397 -0.0615,-3.007508 -4.85852,-2.509874 c -2.6892,-1.389221 -5.12969,-2.51151 -5.46584,-2.51354 l -0.60731,-0.0037 v 3.038877 3.038877 l 4.91373,2.469614 c 2.70255,1.358288 5.18983,2.475265 5.52728,2.482173 l 0.61355,0.01256 z"
       id="path3850"
       inkscape:connector-curvature="0"
       transform="matrix(0.26458333,0,0,0.26458333,0,273.45206)" />
  </g>
</svg>
